<svg width="104" height="104" viewBox="0 0 104 104" fill="none" xmlns="http://www.w3.org/2000/svg">
<mask id="mask0_194_17159" style="mask-type:alpha" maskUnits="userSpaceOnUse" x="0" y="0" width="104" height="104">
<rect width="104" height="104" fill="#D9D9D9"/>
</mask>
<g mask="url(#mask0_194_17159)">
<path d="M79.1999 12H29.6L26.4002 12.2317C26.0546 12.3586 25.7365 12.5352 25.4627 12.7558L12.9374 22.857C12.6638 23.0777 12.4448 23.3341 12.2877 23.6127L12.0002 26.1936V76.5163C12.0002 77.2288 12.7165 77.8066 13.6002 77.8066H80.8001V13.2905C80.7999 12.5777 80.0836 12 79.1999 12Z" fill="#ECEAEC"/>
<path d="M26.4001 26.1936C28.1641 26.1936 29.6 25.0363 29.6 23.613V12H27.7255C27.2622 12 26.8133 12.0792 26.4001 12.2314V23.6128H12.2885C12.0998 23.9462 12 24.3083 12 24.6817V26.1934L26.4001 26.1936Z" fill="#DBD8DB"/>
<path d="M80.7999 12H79.1999V50.7097H72.8V71.3548C72.8 74.2053 69.9346 76.5161 66.4001 76.5161H12V77.8064C12 78.5191 12.7163 79.0967 13.6 79.0967H82.3999V13.2903C82.3999 12.5777 81.6836 12 80.7999 12Z" fill="white"/>
<path d="M87.1999 48.1289H76C74.2326 48.1289 72.8 49.2844 72.8 50.7095L76 53.2902V63.6127L88.0165 68.2944V50.2911L87.1999 48.1289Z" fill="#ECEAEC"/>
<path d="M83.9999 42.9678H78.0491C77.0082 42.9678 76.2443 43.7567 76.4969 44.5711L76.8 45.5484L85.7651 46.9146L83.9999 42.9678Z" fill="#4BCEBC"/>
<path d="M39.1075 21.1737L37.692 21.1597C36.3441 22.5706 34.5585 24.8551 34.4101 27.1765C34.3339 28.3665 34.9403 29.5104 35.9599 30.299L39.8019 30.5148C39.8019 30.5148 45.0095 27.3333 39.1075 21.1737Z" fill="#4BCEBC"/>
<path d="M68 19.7417H55.2C53.4326 19.7417 52 20.8972 52 22.3223L54.3829 23.3878H70.0687L68 19.7417Z" fill="#4BCEBC"/>
<path d="M69.6 30.0645H53.6C52.7155 30.0645 52 29.4867 52 28.7742C52 28.0617 52.7157 27.4839 53.6 27.4839H69.6C70.4845 27.4839 71.2 28.0617 71.2 28.7742C71.2 29.4867 70.4843 30.0645 69.6 30.0645Z" fill="#4BCEBC"/>
<path d="M28 39.0967H23.2001C22.3156 39.0967 21.6001 38.5189 21.6001 37.8064C21.6001 37.0939 22.3158 36.5161 23.2001 36.5161H28C28.8845 36.5161 29.6 37.0939 29.6 37.8064C29.6 38.5189 28.8845 39.0967 28 39.0967Z" fill="#4BCEBC"/>
<path d="M28 44.2584H23.2001C22.3156 44.2584 21.6001 43.6805 21.6001 42.968C21.6001 42.2555 22.3158 41.6777 23.2001 41.6777H28C28.8845 41.6777 29.6 42.2555 29.6 42.968C29.6 43.6805 28.8845 44.2584 28 44.2584Z" fill="#4BCEBC"/>
<path d="M28 49.4195H23.2001C22.3156 49.4195 21.6001 48.8417 21.6001 48.1292C21.6001 47.4167 22.3158 46.8389 23.2001 46.8389H28C28.8845 46.8389 29.6 47.4167 29.6 48.1292C29.6 48.8417 28.8845 49.4195 28 49.4195Z" fill="#4BCEBC"/>
<path d="M28 54.5806H23.2001C22.3156 54.5806 21.6001 54.0028 21.6001 53.2903C21.6001 52.5778 22.3156 52 23.2001 52H28C28.8845 52 29.6 52.5778 29.6 53.2903C29.6 54.0028 28.8845 54.5806 28 54.5806Z" fill="#4BCEBC"/>
<path d="M28 59.7418H23.2001C22.3156 59.7418 21.6001 59.1639 21.6001 58.4514C21.6001 57.7389 22.3158 57.1611 23.2001 57.1611H28C28.8845 57.1611 29.6 57.7389 29.6 58.4514C29.6 59.1639 28.8845 59.7418 28 59.7418Z" fill="#4BCEBC"/>
<path d="M28 64.9034H23.2001C22.3156 64.9034 21.6001 64.3256 21.6001 63.6131C21.6001 62.9006 22.3158 62.3228 23.2001 62.3228H28C28.8845 62.3228 29.6 62.9006 29.6 63.6131C29.6 64.3256 28.8845 64.9034 28 64.9034Z" fill="#4BCEBC"/>
<path d="M28 70.0645H23.2001C22.3156 70.0645 21.6001 69.4867 21.6001 68.7742C21.6001 68.0617 22.3158 67.4839 23.2001 67.4839H28C28.8845 67.4839 29.6 68.0617 29.6 68.7742C29.6 69.4867 28.8845 70.0645 28 70.0645Z" fill="#4BCEBC"/>
<path d="M69.6 39.0967H40.8001C39.9156 39.0967 39.2001 38.5189 39.2001 37.8064C39.2001 37.0939 39.9158 36.5161 40.8001 36.5161H69.6C70.4845 36.5161 71.2 37.0939 71.2 37.8064C71.2 38.5189 70.4843 39.0967 69.6 39.0967Z" fill="#4BCEBC"/>
<path d="M69.6 44.2584H40.8001C39.9156 44.2584 39.2001 43.6805 39.2001 42.968C39.2001 42.2555 39.9158 41.6777 40.8001 41.6777H69.6C70.4845 41.6777 71.2 42.2555 71.2 42.968C71.2 43.6805 70.4843 44.2584 69.6 44.2584Z" fill="#4BCEBC"/>
<path d="M66.4001 49.4195H40.8001C39.9156 49.4195 39.2001 48.8417 39.2001 48.1292C39.2001 47.4167 39.9158 46.8389 40.8001 46.8389H66.4001C67.2845 46.8389 68 47.4167 68 48.1292C68 48.8417 67.2843 49.4195 66.4001 49.4195Z" fill="#4BCEBC"/>
<path d="M66.4001 54.5806H40.8001C39.9156 54.5806 39.2001 54.0028 39.2001 53.2903C39.2001 52.5778 39.9158 52 40.8001 52H66.4001C67.2845 52 68 52.5778 68 53.2903C68 54.0028 67.2843 54.5806 66.4001 54.5806Z" fill="#4BCEBC"/>
<path d="M66.4001 59.7418H40.8001C39.9156 59.7418 39.2001 59.1639 39.2001 58.4514C39.2001 57.7389 39.9158 57.1611 40.8001 57.1611H66.4001C67.2845 57.1611 68 57.7389 68 58.4514C68 59.1639 67.2843 59.7418 66.4001 59.7418Z" fill="#4BCEBC"/>
<path d="M66.4001 64.9034H40.8001C39.9156 64.9034 39.2001 64.3256 39.2001 63.6131C39.2001 62.9006 39.9158 62.3228 40.8001 62.3228H66.4001C67.2845 62.3228 68 62.9006 68 63.6131C68 64.3256 67.2843 64.9034 66.4001 64.9034Z" fill="#4BCEBC"/>
<path d="M66.4001 70.0645H40.8001C39.9156 70.0645 39.2001 69.4867 39.2001 68.7742C39.2001 68.0617 39.9158 67.4839 40.8001 67.4839H66.4001C67.2845 67.4839 68 68.0617 68 68.7742C68 69.4867 67.2843 70.0645 66.4001 70.0645Z" fill="#4BCEBC"/>
<path d="M34.4 70.0646C33.5155 70.0646 32.8 69.4867 32.8 68.7742V37.8064C32.8 37.0939 33.5157 36.5161 34.4 36.5161C35.2843 36.5161 36 37.0939 36 37.8064V68.7742C36 69.4867 35.2844 70.0646 34.4 70.0646Z" fill="#DBD8DB"/>
<path d="M88.8 48.1289H87.2001C87.2001 49.5541 85.7673 50.7095 84.0001 50.7095H72.8002C72.8002 52.1347 74.233 53.2902 76.0002 53.2902H85.6001V63.4417L88.8 61.032V53.2902C90.5672 53.2902 92 52.1347 92 50.7095C92 49.2842 90.5672 48.1289 88.8 48.1289Z" fill="#DBD8DB"/>
<path d="M81.9357 91.5241C85.4702 91.5241 87.8061 89.689 87.8061 86.8385V62.5593L85.5999 61.6772L76 63.6127V86.8385C76 88.3368 76.7916 89.686 78.056 90.629C79.1972 91.4799 81.9357 91.5241 81.9357 91.5241Z" fill="#4BCEBC"/>
<path d="M88.8 86.8388V61.0322L85.6001 61.6774V85.5485C85.6001 88.3989 82.7347 90.7097 79.2001 90.7097C78.8128 90.7097 78.4247 90.6824 78.0562 90.6291C79.1972 91.4799 80.7236 92 82.4001 92C85.9347 92 88.8 89.6893 88.8 86.8388Z" fill="#FB4455"/>
<path d="M86.7507 42.9678H83.9999C83.9999 44.3931 82.5671 45.5484 80.7999 45.5484H76.8L77.5999 48.129H87.1999L88.3029 44.5709C88.5553 43.7565 87.7918 42.9678 86.7507 42.9678Z" fill="#4E3D4D"/>
<path d="M40.439 20.8832C39.8023 20.242 38.5914 20.2479 37.9551 20.8893C37.8758 20.9693 37.7753 21.0728 37.692 21.1596C38.8921 22.6114 40.1051 24.5382 40.1051 26.4737C40.1051 28.4259 38.2897 30.0331 35.9599 30.299C36.6763 30.851 37.6019 31.2331 38.6315 31.3284C41.5367 31.5976 44.0001 29.7728 44.0001 27.4839C44.0001 24.8998 41.8611 22.3157 40.439 20.8832Z" fill="#FB4455"/>
<path d="M68 19.7417C68 21.1669 66.5673 22.3223 64.8001 22.3223H52C52 23.7475 53.4328 24.9029 55.2 24.9029H68C69.7672 24.9029 71.2 23.7475 71.2 22.3223C71.2 20.8972 69.7672 19.7417 68 19.7417Z" fill="#FB4455"/>
</g>
</svg>
