<svg width="24" height="24" viewBox="0 0 24 24" fill="none" xmlns="http://www.w3.org/2000/svg">
<path d="M12 4C10.4178 4 8.87104 4.46919 7.55544 5.34824C6.23985 6.2273 5.21447 7.47673 4.60897 8.93853C4.00347 10.4003 3.84504 12.0089 4.15372 13.5607C4.4624 15.1126 5.22433 16.538 6.34315 17.6569C7.46197 18.7757 8.88743 19.5376 10.4393 19.8463C11.9911 20.155 13.5997 19.9965 15.0615 19.391C16.5233 18.7855 17.7727 17.7602 18.6518 16.4446C19.5308 15.129 20 13.5823 20 12C19.9975 9.87904 19.1538 7.84566 17.6541 6.34591C16.1543 4.84616 14.121 4.0025 12 4ZM12 18.5455C10.7054 18.5455 9.43994 18.1616 8.36355 17.4424C7.28715 16.7231 6.4482 15.7009 5.95279 14.5048C5.45738 13.3088 5.32776 11.9927 5.58032 10.723C5.83288 9.45335 6.45627 8.28706 7.37167 7.37167C8.28707 6.45627 9.45336 5.83287 10.7231 5.58032C11.9927 5.32776 13.3088 5.45738 14.5048 5.95279C15.7009 6.4482 16.7231 7.28715 17.4424 8.36354C18.1616 9.43994 18.5455 10.7054 18.5455 12C18.5433 13.7353 17.8531 15.399 16.626 16.626C15.399 17.8531 13.7353 18.5433 12 18.5455Z" fill="#494949"/>
<path d="M12.727 11.6989V7.63633C12.727 7.44345 12.6504 7.25846 12.514 7.12207C12.3776 6.98568 12.1926 6.90906 11.9997 6.90906C11.8068 6.90906 11.6219 6.98568 11.4855 7.12207C11.3491 7.25846 11.2725 7.44345 11.2725 7.63633V12C11.2725 12.1928 11.3492 12.3778 11.4856 12.5142L13.6674 14.696C13.8045 14.8284 13.9882 14.9018 14.1789 14.9001C14.3696 14.8984 14.552 14.822 14.6869 14.6871C14.8217 14.5523 14.8982 14.3699 14.8999 14.1792C14.9015 13.9885 14.8282 13.8048 14.6957 13.6676L12.727 11.6989Z" fill="#494949"/>
</svg>
