<svg width="24" height="24" viewBox="0 0 24 24" fill="none" xmlns="http://www.w3.org/2000/svg">
<path d="M16.9109 5.23252H16.3141V4.62863C16.3141 4.28359 16.0344 4.00391 15.6894 4.00391C15.3444 4.00391 15.0647 4.28359 15.0647 4.62863V5.23252H8.9353V4.62863C8.9353 4.28359 8.65561 4.00391 8.31058 4.00391C7.96555 4.00391 7.68586 4.28359 7.68586 4.62863V5.23252H7.08909C5.38576 5.23252 4 6.61827 4 8.32158V16.9077C4 18.611 5.38576 19.9968 7.08909 19.9968H16.9109C18.6142 19.9968 20 18.611 20 16.9077V8.32158C20 6.61827 18.6142 5.23252 16.9109 5.23252ZM7.08909 6.48196H7.68586V7.70017C7.68586 8.0452 7.96555 8.32489 8.31058 8.32489C8.65561 8.32489 8.9353 8.0452 8.9353 7.70017V6.48196H15.0647V7.70017C15.0647 8.0452 15.3444 8.32489 15.6894 8.32489C16.0345 8.32489 16.3141 8.0452 16.3141 7.70017V6.48196H16.9109C17.9253 6.48196 18.7506 7.30722 18.7506 8.32158V8.91837H5.24944V8.32158C5.24944 7.30722 6.0747 6.48196 7.08909 6.48196ZM16.9109 18.7473H7.08909C6.0747 18.7473 5.24944 17.9221 5.24944 16.9077V10.1678H18.7506V16.9077C18.7506 17.9221 17.9253 18.7473 16.9109 18.7473ZM9.54962 12.6251C9.54962 12.9701 9.26993 13.2498 8.9249 13.2498H7.69629C7.35126 13.2498 7.07157 12.9701 7.07157 12.6251C7.07157 12.28 7.35126 12.0003 7.69629 12.0003H8.9249C9.2699 12.0003 9.54962 12.28 9.54962 12.6251ZM16.9285 12.6251C16.9285 12.9701 16.6488 13.2498 16.3037 13.2498H15.0751C14.7301 13.2498 14.4504 12.9701 14.4504 12.6251C14.4504 12.28 14.7301 12.0003 15.0751 12.0003H16.3037C16.6487 12.0003 16.9285 12.28 16.9285 12.6251ZM13.2355 12.6251C13.2355 12.9701 12.9558 13.2498 12.6108 13.2498H11.3821C11.0371 13.2498 10.7574 12.9701 10.7574 12.6251C10.7574 12.28 11.0371 12.0003 11.3821 12.0003H12.6108C12.9558 12.0003 13.2355 12.28 13.2355 12.6251ZM9.54962 16.3109C9.54962 16.656 9.26993 16.9356 8.9249 16.9356H7.69629C7.35126 16.9356 7.07157 16.656 7.07157 16.3109C7.07157 15.9659 7.35126 15.6862 7.69629 15.6862H8.9249C9.2699 15.6862 9.54962 15.9659 9.54962 16.3109ZM16.9285 16.3109C16.9285 16.656 16.6488 16.9356 16.3037 16.9356H15.0751C14.7301 16.9356 14.4504 16.656 14.4504 16.3109C14.4504 15.9659 14.7301 15.6862 15.0751 15.6862H16.3037C16.6487 15.6862 16.9285 15.9659 16.9285 16.3109ZM13.2355 16.3109C13.2355 16.656 12.9558 16.9356 12.6108 16.9356H11.3821C11.0371 16.9356 10.7574 16.656 10.7574 16.3109C10.7574 15.9659 11.0371 15.6862 11.3821 15.6862H12.6108C12.9558 15.6862 13.2355 15.9659 13.2355 16.3109Z" fill="#494949"/>
</svg>
