<svg width="24" height="24" viewBox="0 0 24 24" fill="none" xmlns="http://www.w3.org/2000/svg">
<path d="M7.43762 12.2983L5.00687 9.86755C4.35759 9.21827 4 8.35502 4 7.43677C4 5.54127 5.54212 3.99915 7.43762 3.99915C9.33315 3.99915 10.8752 5.54127 10.8752 7.43677C10.8752 8.35502 10.5177 9.21827 9.86837 9.86755L7.43762 12.2983ZM7.43762 4.93664C6.05906 4.93664 4.9375 6.05821 4.9375 7.43677C4.9375 8.10458 5.19756 8.73242 5.66978 9.20464L7.43762 10.9725L9.20549 9.20464C9.67771 8.73242 9.93777 8.10458 9.93777 7.43677C9.93777 6.05821 8.81621 4.93664 7.43762 4.93664Z" fill="#494949"/>
<path d="M7.43756 8.99927C6.57597 8.99927 5.875 8.2983 5.875 7.43671C5.875 6.57511 6.57597 5.87415 7.43756 5.87415C8.29915 5.87415 9.00012 6.57511 9.00012 7.43671C9.00012 8.2983 8.29915 8.99927 7.43756 8.99927ZM7.43756 6.81164C7.0929 6.81164 6.8125 7.09205 6.8125 7.43671C6.8125 7.78136 7.0929 8.06177 7.43756 8.06177C7.78222 8.06177 8.06262 7.78136 8.06262 7.43671C8.06262 7.09205 7.78222 6.81164 7.43756 6.81164Z" fill="#494949"/>
<path d="M17.5001 20.001L15.7322 18.2332C15.2601 17.761 15 17.1331 15 16.4653C15 15.0868 16.1216 13.9652 17.5001 13.9652C18.8787 13.9652 20.0002 15.0868 20.0002 16.4653C20.0002 17.1331 19.7402 17.761 19.268 18.2332L17.5001 20.001ZM16.3952 17.5703L17.5001 18.6752L18.6051 17.5703C18.9002 17.2751 19.0627 16.8827 19.0627 16.4653C19.0627 15.6037 18.3617 14.9027 17.5001 14.9027C16.6385 14.9027 15.9375 15.6037 15.9375 16.4653C15.9375 16.8827 16.1001 17.2751 16.3952 17.5703Z" fill="#494949"/>
<path d="M15.2186 19.9991H9.98572C8.32215 19.9991 6.96875 18.6457 6.96875 16.9821C6.96875 15.3186 8.32215 13.9651 9.98572 13.9651H11.7252C12.2383 13.9651 12.6557 13.5477 12.6557 13.0346C12.6557 12.5215 12.2383 12.1041 11.7252 12.1041H9.9064V11.1666H11.7252C12.7552 11.1666 13.5932 12.0046 13.5932 13.0346C13.5932 14.0647 12.7552 14.9026 11.7252 14.9026H9.98572C8.83909 14.9026 7.90625 15.8355 7.90625 16.9821C7.90625 18.1287 8.83906 19.0616 9.98572 19.0616H15.2186V19.9991H15.2186Z" fill="#494949"/>
</svg>
