<svg width="80" height="80" viewBox="0 0 80 80" fill="none" xmlns="http://www.w3.org/2000/svg">
<g clip-path="url(#clip0_320_1412)">
<path fill-rule="evenodd" clip-rule="evenodd" d="M71.1549 79.9998H6.52679C6.07835 79.9998 5.71429 79.6357 5.71429 79.1857V65.5764C5.71429 57.6217 12.1846 51.1514 20.1377 51.1514H22.6987C23.1096 51.1514 23.4487 51.4545 23.5033 51.8498H53.5846C53.6409 51.4545 53.9799 51.1514 54.3893 51.1514H57.544C65.4971 51.1514 71.9674 57.6217 71.9674 65.5764V79.1857C71.9674 79.6357 71.6033 79.9998 71.1549 79.9998Z" fill="#DBE9EE"/>
<path fill-rule="evenodd" clip-rule="evenodd" d="M45.5971 40.7595C45.7284 40.4845 46.008 40.2954 46.3315 40.2954C46.7815 40.2954 47.1455 40.6595 47.1455 41.1079V46.9313C47.1455 47.3673 46.8002 47.7235 46.3674 47.7438L45.9643 56.747C46.1846 56.8517 46.3549 57.0532 46.4096 57.3079C46.5049 57.747 46.2268 58.1798 45.7893 58.2767C43.3534 58.8079 40.9627 58.9923 38.8174 58.9923C35.4627 58.9923 32.7112 58.5407 31.3268 58.261C30.8862 58.172 30.6018 57.7438 30.6909 57.3032C30.7455 57.036 30.9237 56.8267 31.1549 56.722L30.683 47.6813C30.2768 47.636 29.9596 47.2923 29.9596 46.8735V41.1079C29.9596 40.6595 30.3237 40.2954 30.7737 40.2954C31.0971 40.2954 31.3784 40.4845 31.508 40.7595H45.5971Z" fill="#E7BD8B"/>
<path fill-rule="evenodd" clip-rule="evenodd" d="M32.9549 80.0001C32.6752 80.0001 32.4096 79.8563 32.2596 79.6079L21.069 61.1501C20.858 60.8032 20.9377 60.3532 21.2518 60.097L24.3846 57.5579L21.1252 50.4938C21.0299 50.2876 21.0252 50.0517 21.1112 49.8423C21.1987 49.6329 21.369 49.4688 21.5815 49.3907L30.4924 46.1095C30.733 46.022 31.0018 46.0517 31.2158 46.1907C31.4315 46.3298 31.5674 46.5626 31.5846 46.8188L33.7612 79.0579C33.7674 79.1001 33.7705 79.1423 33.7705 79.186C33.7705 79.6298 33.4159 79.9907 32.9752 80.0001C32.969 80.0001 32.9612 80.0001 32.9549 80.0001Z" fill="#4BCEBC"/>
<path fill-rule="evenodd" clip-rule="evenodd" d="M38.5518 44.7032C34.7471 44.7032 30.9471 42.9235 28.3877 39.9407C26.3377 37.5517 25.3471 34.7204 25.5471 31.886C23.983 31.6032 22.8018 30.8688 22.0283 29.6985C20.0502 26.6985 21.6408 21.9423 21.708 21.7423C21.8393 21.3595 22.2252 21.1376 22.6112 21.2017L25.3283 11.0642L25.3612 10.9438H25.4846H53.008H53.1487L53.169 11.0829L54.6455 21.1907C54.9768 21.1985 55.283 21.4095 55.3971 21.7423C55.4658 21.9423 57.0533 26.6985 55.0752 29.6985C54.3033 30.8688 53.1221 31.6032 51.558 31.886C51.7596 34.7204 50.7674 37.5517 48.7174 39.9407C46.158 42.9235 42.358 44.7032 38.5518 44.7032Z" fill="#FDD5A6"/>
<path fill-rule="evenodd" clip-rule="evenodd" d="M54.6268 22.8344C54.5987 22.8344 54.5721 22.8328 54.544 22.8297C50.9424 22.4641 50.0674 19.9625 49.4284 18.1359C49.1862 17.4469 48.9596 16.7953 48.6393 16.3984C47.5987 15.1062 46.6159 14.9406 45.8768 14.9406C45.2487 14.9406 44.5987 15.075 43.9096 15.2172C43.1862 15.3672 42.4377 15.5234 41.6737 15.5234H36.1643C34.4143 15.5234 32.6533 14.6828 31.0159 13.0797C28.4393 19.6187 24.7893 21.9094 22.7705 22.7016C22.519 22.8 22.2377 22.7672 22.0159 22.6156C21.7924 22.4641 21.6596 22.2125 21.6596 21.9438L21.6643 15.5359C21.6643 11.2516 22.0955 7.25156 27.2159 5.3875C29.5377 1.8125 32.9377 0 37.3268 0C41.8049 0 45.9049 1.93594 47.1158 2.56406C47.2268 2.59063 47.719 2.67344 49.6096 2.67344C50.6205 2.67344 51.7252 2.65156 52.533 2.63438C53.0409 2.62344 53.4409 2.61562 53.6752 2.61562C54.0737 2.61562 54.4143 2.90469 54.4783 3.29844C54.4971 3.41563 54.8799 5.92812 53.2455 7.83437C55.094 10.0781 55.4393 11.6359 55.4393 14.5219V22.0203C55.4393 22.25 55.3424 22.4703 55.1721 22.6234C55.0221 22.7594 54.8268 22.8344 54.6268 22.8344Z" fill="#606062"/>
<path fill-rule="evenodd" clip-rule="evenodd" d="M62.6237 52.0767C63.183 52.2876 63.7252 52.5329 64.2502 52.8079V64.2532C64.2502 64.7017 63.8862 65.0657 63.4362 65.0657C62.9877 65.0657 62.6237 64.7017 62.6237 64.2532V52.0767Z" fill="#2C597C"/>
<path fill-rule="evenodd" clip-rule="evenodd" d="M44.1502 80.0002C44.069 80.0002 43.9862 79.9877 43.9049 79.9627C43.5471 79.8502 43.3143 79.5065 43.3393 79.133L45.5205 46.819C45.5377 46.5627 45.6752 46.3315 45.8893 46.1908C46.1033 46.0518 46.3721 46.0221 46.6127 46.1111L55.5237 49.3908C55.7362 49.469 55.9065 49.633 55.994 49.8424C56.0799 50.0518 56.0752 50.2877 55.9815 50.494L52.7205 57.558L55.8533 60.0971C56.169 60.3533 56.2471 60.8033 56.0362 61.1502L44.8455 79.608C44.6955 79.8565 44.4283 80.0002 44.1502 80.0002Z" fill="#4BCEBC"/>
<path fill-rule="evenodd" clip-rule="evenodd" d="M13.9659 65.0952C13.5159 65.0952 13.1518 64.7311 13.1518 64.2811V53.4546C13.1518 53.0046 13.5159 52.6421 13.9659 52.6421C14.4143 52.6421 14.7783 53.0046 14.7783 53.4546V64.2811C14.7783 64.7311 14.4143 65.0952 13.9659 65.0952Z" fill="#2C597C"/>
<path fill-rule="evenodd" clip-rule="evenodd" d="M13.9658 71.0687C11.8705 71.0687 10.1658 69.3641 10.1658 67.2687C10.1658 65.1734 11.8705 63.4688 13.9658 63.4688C16.0596 63.4688 17.7643 65.1734 17.7643 67.2687C17.7643 69.3641 16.0612 71.0687 13.9658 71.0687Z" fill="#2C597C"/>
<path fill-rule="evenodd" clip-rule="evenodd" d="M68.458 72.7029H65.2393C64.7909 72.7029 64.4268 72.3389 64.4268 71.8904C64.4268 71.4404 64.7909 71.0764 65.2393 71.0764H67.644V68.0717C67.644 66.4139 66.2955 65.0654 64.6393 65.0654H62.2346C60.5768 65.0654 59.2284 66.4139 59.2284 68.0717V71.0779L61.633 71.0764C62.083 71.0764 62.4471 71.4404 62.4471 71.8904C62.4471 72.3389 62.083 72.7029 61.633 72.7029H58.4159C57.9659 72.7029 57.6018 72.3389 57.6018 71.8904V68.0717C57.6018 65.517 59.6799 63.4404 62.2346 63.4404H64.6393C67.1924 63.4404 69.2705 65.517 69.2705 68.0717V71.8904C69.2705 72.3389 68.9065 72.7029 68.458 72.7029Z" fill="#2C597C"/>
</g>
<defs>
<clipPath id="clip0_320_1412">
<rect width="80" height="80" fill="white"/>
</clipPath>
</defs>
</svg>
