<svg width="31" height="32" viewBox="0 0 31 32" fill="none" xmlns="http://www.w3.org/2000/svg">
<path d="M15.5 2.66667C8.36617 2.66667 2.58337 8.636 2.58337 16C2.58337 23.364 8.36617 29.3333 15.5 29.3333C22.6339 29.3333 28.4167 23.364 28.4167 16C28.4167 8.636 22.6339 2.66667 15.5 2.66667Z" fill="url(#paint0_linear_6_326)"/>
<path d="M17.2483 19.534H20.5911L21.1162 16.0287H17.2483V14.1127C17.2483 12.6567 17.7094 11.3653 19.0288 11.3653H21.1491V8.30666C20.7764 8.25466 19.9885 8.14133 18.4999 8.14133C15.3908 8.14133 13.5683 9.83599 13.5683 13.6973V16.0293H10.3721V19.5347H13.5677V29.1693C14.2006 29.2667 14.8419 29.3333 15.5 29.3333C16.0948 29.3333 16.6754 29.2773 17.2483 29.1973V19.534Z" fill="white"/>
<defs>
<linearGradient id="paint0_linear_6_326" x1="6.45385" y1="6.662" x2="26.8582" y2="26.4287" gradientUnits="userSpaceOnUse">
<stop stop-color="#2AA4F4"/>
<stop offset="1" stop-color="#007AD9"/>
</linearGradient>
</defs>
</svg>
