<svg width="17" height="14" viewBox="0 0 17 14" fill="none" xmlns="http://www.w3.org/2000/svg">
<g clip-path="url(#clip0_706_1813)">
<path d="M15.8155 11.2258C10.5435 7.7678 5.27163 17.9034 0 12.2443V3.14141C5.27163 8.80054 10.5435 -1.33464 15.8155 2.12299V11.2256V11.2258ZM0.779086 12.1773C5.53153 15.9402 10.2836 8.04446 15.0362 10.0188V2.49903C10.2836 0.524928 5.53133 8.4205 0.779086 4.65757V12.1773Z" fill="black"/>
<path d="M8.20636 10.4222C6.75659 11.2307 5.57666 10.4647 5.57666 8.97718C5.57666 7.48966 6.75638 5.88781 8.20636 5.07951C9.65635 4.27311 10.8361 4.94539 10.8361 6.4346C10.8361 7.92381 9.65635 9.6162 8.20636 10.4224V10.4222ZM8.20636 5.67305C7.07887 6.29164 6.16113 7.61473 6.16113 8.75421C6.16113 9.8937 7.07887 10.4474 8.20636 9.82864C9.33406 9.2111 10.2518 7.83159 10.2518 6.69337C10.2518 5.55514 9.33406 5.05551 8.20636 5.67305Z" fill="black"/>
<path d="M2.41796 5.30225C2.33049 6.32235 1.46664 6.99021 0.4034 6.0158C0.416664 6.2354 0.359668 6.38678 0.25293 6.46068C0.298734 6.50743 0.343709 6.55522 0.389513 6.59775C1.814 7.91305 2.97528 6.73103 3.01528 5.3313C2.83185 5.39657 2.62542 5.39341 2.41775 5.30225H2.41796Z" fill="black"/>
<path d="M15.4118 4.32647C14.457 3.67988 13.7208 2.88906 13.6804 1.87274C13.4768 1.89864 13.2717 1.84958 13.0895 1.75146C13.0895 1.76452 13.0874 1.77841 13.0874 1.79168C13.0874 3.19456 14.1142 4.10982 15.4292 4.94401C15.3714 4.71472 15.3625 4.49744 15.4118 4.32668V4.32647Z" fill="black"/>
<path d="M0.290978 10.1158C0.324347 10.1466 0.355643 10.1676 0.389634 10.1994C1.48748 11.218 2.37953 12.2603 2.42616 13.3941C2.62658 13.4387 2.83322 13.5252 3.01747 13.6406C3.01809 13.6288 3.01933 13.6174 3.01933 13.6057C3.01933 12.0962 1.83962 10.9426 0.389634 9.60566C0.323518 9.54376 0.258231 9.48649 0.193359 9.42627C0.275019 9.69367 0.307766 9.93053 0.291186 10.1156L0.290978 10.1158Z" fill="black"/>
<path d="M13.6726 10.1413C13.6726 10.1413 13.6722 10.1396 13.6722 10.139C13.6722 9.22518 14.2736 8.42762 15.0969 8.50952C15.0527 8.28003 15.0604 8.06127 15.1263 7.89114C13.9605 7.66312 13.0879 8.89883 13.0879 10.1421C13.0879 10.1821 13.092 10.2211 13.0939 10.2604C13.2775 10.1598 13.4792 10.1158 13.6726 10.1415V10.1413Z" fill="black"/>
<path d="M17.0002 10.6461C16.7403 10.3673 16.4806 10.1269 16.2207 9.92116V1.82241C11.3497 -2.03484 6.47786 6.35826 1.60645 3.81357V3.02211C6.73776 5.70282 11.8691 -3.75228 17.0002 1.75609V10.6461Z" fill="black"/>
<path d="M8.11571 9.52224V9.17778C7.94618 9.24642 7.80814 9.28116 7.70182 9.28074C7.59591 9.28074 7.50451 9.23821 7.4272 9.15399C7.34989 9.06956 7.30512 8.94091 7.29248 8.76847C7.40627 8.68973 7.51964 8.60972 7.63342 8.52887C7.66016 8.69983 7.70617 8.81163 7.77311 8.86343C7.86845 8.93607 7.98286 8.94344 8.11592 8.88659V7.79005C7.97623 7.83764 7.83426 7.85848 7.68855 7.85153C7.58057 7.84648 7.49684 7.805 7.43901 7.72647C7.38036 7.64751 7.35093 7.53929 7.35093 7.40138C7.35093 7.1563 7.43632 6.91522 7.60731 6.67436C7.72171 6.51308 7.89084 6.36211 8.11592 6.21894V6.05429C8.18245 6.01892 8.24919 5.98334 8.31572 5.94775V6.11219C8.51261 6.02545 8.66889 6.00018 8.78495 6.03661C8.93294 6.08208 9.02226 6.20673 9.05232 6.40886C8.93563 6.48886 8.81853 6.56887 8.70205 6.64972C8.68132 6.52529 8.64008 6.44402 8.57666 6.40549C8.51303 6.36759 8.42619 6.36675 8.31572 6.40317V7.39654C8.48588 7.34853 8.59904 7.32158 8.65479 7.31632C8.7607 7.30663 8.84609 7.31821 8.91283 7.35022C8.97915 7.38264 9.03035 7.43549 9.06641 7.50939C9.10206 7.58351 9.12009 7.6753 9.12009 7.78374C9.12009 8.02229 9.04506 8.26084 8.89584 8.49939C8.7464 8.73878 8.55324 8.92807 8.31572 9.06682V9.41549C8.24919 9.45107 8.18245 9.48644 8.11592 9.52202L8.11571 9.52224ZM8.11571 6.50613C7.9841 6.59688 7.87985 6.70552 7.80441 6.83227C7.72835 6.95902 7.69 7.08156 7.69 7.2001C7.69 7.31864 7.72213 7.39885 7.78721 7.44349C7.85146 7.48918 7.96131 7.49423 8.11571 7.45907V6.50613ZM8.31551 8.78026C8.44733 8.69288 8.55635 8.57624 8.64194 8.43075C8.72837 8.28463 8.77127 8.13872 8.77127 7.99197C8.77127 7.86753 8.74101 7.7831 8.67987 7.73994C8.61914 7.69615 8.4979 7.69362 8.31551 7.73152V8.78047V8.78026Z" fill="black"/>
</g>
<defs>
<clipPath id="clip0_706_1813">
<rect width="17" height="14" fill="white"/>
</clipPath>
</defs>
</svg>
