<svg width="24" height="24" viewBox="0 0 24 24" fill="none" xmlns="http://www.w3.org/2000/svg">
<path d="M11.61 19.7913C11.6969 19.9217 11.8433 20 12 20C12.1567 20 12.3031 19.9217 12.39 19.7913C13.4994 18.1273 15.1333 16.0723 16.272 13.9822C17.1824 12.3111 17.625 10.8858 17.625 9.625C17.625 6.52338 15.1016 4 12 4C8.89838 4 6.375 6.52338 6.375 9.625C6.375 10.8858 6.81759 12.3111 7.72803 13.9822C8.86581 16.0707 10.5029 18.1307 11.61 19.7913ZM12 4.9375C14.5847 4.9375 16.6875 7.04031 16.6875 9.625C16.6875 10.7251 16.2823 12.0037 15.4487 13.5337C14.4672 15.3352 13.0667 17.1627 12 18.699C10.9335 17.1629 9.53281 15.3353 8.55128 13.5337C7.71772 12.0037 7.3125 10.7251 7.3125 9.625C7.3125 7.04031 9.41531 4.9375 12 4.9375Z" fill="#494949"/>
<path d="M12 12.4375C13.5508 12.4375 14.8125 11.1758 14.8125 9.625C14.8125 8.07419 13.5508 6.8125 12 6.8125C10.4492 6.8125 9.1875 8.07419 9.1875 9.625C9.1875 11.1758 10.4492 12.4375 12 12.4375ZM12 7.75C13.0339 7.75 13.875 8.59113 13.875 9.625C13.875 10.6589 13.0339 11.5 12 11.5C10.9661 11.5 10.125 10.6589 10.125 9.625C10.125 8.59113 10.9661 7.75 12 7.75Z" fill="#494949"/>
</svg>
