<svg width="104" height="104" viewBox="0 0 104 104" fill="none" xmlns="http://www.w3.org/2000/svg">
<mask id="mask0_194_17292" style="mask-type:alpha" maskUnits="userSpaceOnUse" x="0" y="0" width="104" height="104">
<rect width="104" height="104" fill="#4BCEBC"/>
</mask>
<g mask="url(#mask0_194_17292)">
</g>
<g opacity="0.8">
<path fill-rule="evenodd" clip-rule="evenodd" d="M52 79.1878L43.8398 65.5474L33.6797 70.2349C28.9984 72.3946 24.3047 74.4544 24.3047 79.6099V90.828H79.6955V79.6099C79.6955 74.4541 75.0017 72.3946 70.3205 70.2349L60.1602 65.5474L52 79.1878Z" fill="#4BCEBC"/>
<path fill-rule="evenodd" clip-rule="evenodd" d="M43.8397 65.5476L52 79.1881L60.1603 65.5476L59.0313 61.3071C56.9597 62.5123 54.5566 63.2038 51.9998 63.2038C49.4431 63.2038 47.0402 62.5124 44.9686 61.3073L43.8397 65.5476Z" fill="#FFD9AB"/>
<path fill-rule="evenodd" clip-rule="evenodd" d="M51.9998 63.2037C59.7 63.2037 66.0622 56.9098 66.0622 49.1414V39.7664C66.0622 38.4779 65.0069 37.4228 63.7184 37.4226L57.8592 37.4219C54.6367 37.4215 51.9998 34.7845 51.9998 31.562C51.9998 34.7853 49.363 37.4226 46.1405 37.4226H40.2812C38.9923 37.4226 37.9375 38.4776 37.9375 39.7664V49.1414C37.9377 56.9098 44.2997 63.2037 51.9998 63.2037Z" fill="#FFD9AB"/>
<path fill-rule="evenodd" clip-rule="evenodd" d="M40.2813 37.4227H46.1405C49.3631 37.4227 51.9998 34.7854 51.9998 31.5621C51.9998 34.7846 54.6367 37.4216 57.8592 37.4219L63.7184 37.4227C65.0069 37.4229 66.0622 38.478 66.0622 39.7665H70.7502V33.0937C70.7502 28.4282 69.0223 24.1471 66.1758 20.8569L62.4641 28.5588C59.4 27.7172 55.822 27.2341 52 27.2341C48.178 27.2341 44.6 27.7174 41.5359 28.5588L37.8242 20.8569C34.9778 24.1471 33.2498 28.428 33.2498 33.0937L33.25 39.7665H37.9375C37.9377 38.4776 38.9925 37.4227 40.2813 37.4227Z" fill="#6186A6"/>
<path fill-rule="evenodd" clip-rule="evenodd" d="M41.5359 28.5591C44.6 27.7175 48.178 27.2344 52 27.2344C55.822 27.2344 59.4 27.7177 62.4641 28.5591L68.1331 16.7959C64.3745 14.5889 58.5452 13.1719 52 13.1719C45.4549 13.1719 39.6255 14.5889 35.8669 16.7958L41.5359 28.5591Z" fill="#4BCEBC"/>
<path fill-rule="evenodd" clip-rule="evenodd" d="M37.9377 49.1416V39.7666H33.2502C31.9611 39.7666 30.9064 40.8213 30.9064 42.1104V44.4541C30.9064 46.1799 31.8516 47.6955 33.2497 48.5091C33.9403 48.911 34.7414 49.1416 35.5939 49.1416H37.9377ZM66.0622 49.1416H68.4059C69.2584 49.1416 70.0597 48.911 70.7503 48.5091C72.1484 47.6955 73.0934 46.1799 73.0934 44.4543V42.1105C73.0934 40.8214 72.0387 39.7668 70.7497 39.7668H66.0622V49.1416Z" fill="#FFAF7C"/>
<path fill-rule="evenodd" clip-rule="evenodd" d="M37.9377 49.1416H35.5939C34.7414 49.1416 33.9403 48.911 33.2497 48.5093C30.1559 54.1633 32.6406 64.9869 44.9689 61.3072C40.7734 58.8666 37.9377 54.3193 37.9377 49.1416Z" fill="#6186A6"/>
<path fill-rule="evenodd" clip-rule="evenodd" d="M66.0622 49.1414C66.0622 54.3189 63.2264 58.8664 59.0312 61.3071C71.3595 64.9868 73.8442 54.1632 70.7503 48.5088C70.0597 48.9107 69.2584 49.1413 68.4059 49.1413L66.0622 49.1414Z" fill="#6186A6"/>
<path fill-rule="evenodd" clip-rule="evenodd" d="M28.5867 72.835C26.1047 74.4121 24.3045 76.4173 24.3045 79.6098V90.8279H27.8202V76.0942C27.8202 74.8396 28.0988 73.7689 28.5867 72.835Z" fill="#00EBE9"/>
<path fill-rule="evenodd" clip-rule="evenodd" d="M51.9998 63.2038C52.5945 63.2038 53.1812 63.166 53.7577 63.0932C46.8705 62.2225 41.4531 56.3097 41.4531 49.1416V37.4229H40.2812C38.9923 37.4229 37.9375 38.4779 37.9375 39.7666V49.1416C37.9377 56.9099 44.2997 63.2038 51.9998 63.2038Z" fill="#FFAF7C"/>
<path fill-rule="evenodd" clip-rule="evenodd" d="M39.2453 23.8058L37.8242 20.8569C34.9778 24.1471 33.2498 28.428 33.2498 33.0937L33.25 39.7665H36.7656L36.7653 33.0937C36.7653 29.7202 37.6689 26.548 39.2453 23.8058Z" fill="#456078"/>
<path fill-rule="evenodd" clip-rule="evenodd" d="M36.453 49.1416H35.5939C34.7414 49.1416 33.9403 48.911 33.2497 48.5093C30.405 53.7082 32.2775 63.2763 42.1811 61.923C35.688 60.8727 34.4072 53.7137 36.453 49.1416Z" fill="#456078"/>
<path fill-rule="evenodd" clip-rule="evenodd" d="M41.5359 28.5589C42.6252 28.2599 43.7795 28.006 44.9866 27.803L38.983 15.3252C37.8333 15.7619 36.7878 16.255 35.8669 16.7958L41.5359 28.5589Z" fill="#00EBE9"/>
<path fill-rule="evenodd" clip-rule="evenodd" d="M43.8397 65.5476L46.252 69.5799L48.1203 62.656C47.008 62.3345 45.9511 61.8787 44.9686 61.3071L43.8397 65.5476Z" fill="#FFAF7C"/>
<path d="M74.2655 78.4116H71.9217V76.0679H74.2655V78.4116ZM69.578 76.0679H67.2342V73.7241H69.578V76.0679Z" fill="white"/>
<path d="M71.0884 69.2986L61.1511 64.7141L60.6717 62.9134C61.5933 63.0889 62.6094 63.2105 63.6567 63.2105C66.228 63.2105 68.9855 62.4775 70.9806 60.0106C73.2931 57.1516 73.7683 52.54 72.2302 48.888C73.4752 47.8127 74.2655 46.2244 74.2655 44.4541V42.1103C74.2655 40.5828 73.2859 39.2803 71.922 38.7964V33.0938C71.922 28.5889 70.3772 24.2142 67.5581 20.6883L69.6575 16.332L68.7264 15.7853C64.6295 13.3797 58.533 12 52 12C48.7659 12 45.6586 12.3308 42.7641 12.9831L43.2794 15.2695C46.005 14.6552 48.9391 14.3438 52 14.3438C57.6323 14.3438 62.8727 15.4098 66.5934 17.2911L61.8259 27.1836C58.8044 26.4486 55.4297 26.0623 51.9998 26.0623C48.57 26.0623 45.1953 26.4488 42.1738 27.1836L37.4066 17.2917C38.4766 16.7527 39.6884 16.2745 41.0233 15.8656L40.3366 13.6247C38.4167 14.213 36.7131 14.9398 35.2733 15.7853L34.3422 16.332L36.4416 20.6883C33.6225 24.2142 32.0775 28.5891 32.0775 33.0939V38.7964C30.7138 39.2802 29.7341 40.5827 29.7341 42.1103V44.4541C29.7341 46.2245 30.5244 47.8128 31.7695 48.888C30.2314 52.54 30.7067 57.1516 33.0191 60.0106C35.0145 62.4778 37.7716 63.2105 40.343 63.2105C41.3902 63.2105 42.4064 63.0887 43.328 62.9133L42.8486 64.7139L32.912 69.298C28.328 71.4108 23.1323 73.8056 23.1323 79.6097V92H71.4919V89.6562H25.4766V79.61C25.4766 75.3064 29.377 73.5084 33.8936 71.4267L43.3747 67.0527L50.8281 79.5117V84.9688H53.1719V79.5117L60.6255 67.0527L70.1075 71.4272C74.6236 73.5086 78.5238 75.3063 78.5238 79.61V89.6562H73.8363V92H80.8675V79.61C80.8672 73.8058 75.672 71.4113 71.0884 69.2986ZM52 62.032C44.8922 62.032 39.1095 56.2494 39.1095 49.1416V39.7666C39.1095 39.1203 39.6352 38.5947 40.2814 38.5947H46.1406C48.5836 38.5947 50.7395 37.3422 52.0002 35.4455C53.2609 37.3414 55.4167 38.5936 57.8592 38.5939L63.7184 38.5945C64.3647 38.5945 64.8905 39.1203 64.8905 39.7664V49.1414C64.8905 56.2494 59.1078 62.032 52 62.032ZM45.7247 63.0225C47.6392 63.8914 49.7641 64.3758 51.9998 64.3758C54.2358 64.3758 56.3606 63.8916 58.2752 63.0225L58.9003 65.3706L52 76.9053L45.0997 65.3706L45.7247 63.0225ZM69.1583 58.5367C67.5916 60.4736 65.0942 61.2202 61.8575 60.7464C64.8658 58.1873 66.8708 54.4828 67.1895 50.3134H68.4061C69.0187 50.3134 69.6095 50.2186 70.165 50.0433C71.137 52.6189 71.0505 56.1973 69.1583 58.5367ZM67.2342 40.9384H70.7498C71.3961 40.9384 71.9217 41.4641 71.9217 42.1103V44.4541C71.9217 46.3927 70.3447 47.9697 68.4061 47.9697H67.2342V40.9384ZM37.5883 23.0669L40.9044 29.9478L41.8464 29.6892C44.9025 28.8498 48.4134 28.4062 52.0002 28.4062C55.5869 28.4062 59.0978 28.8498 62.1539 29.6892L63.0959 29.9478L66.4119 23.067C68.4637 26.0044 69.5784 29.5027 69.5784 33.0939V38.5948H67.0327C66.5489 37.2309 65.2464 36.2512 63.7188 36.2511L57.8595 36.2505C55.2748 36.2502 53.1719 34.1472 53.1719 31.5625H50.8281C50.8281 34.1478 48.7253 36.2511 46.1406 36.2511H40.2813C38.7534 36.2511 37.4509 37.2309 36.9672 38.5948H34.4216V33.0938C34.4217 29.5025 35.5363 26.0041 37.5883 23.0669ZM36.7656 47.9697H35.5938C33.6552 47.9697 32.0781 46.3927 32.0781 44.4541V42.1103C32.0781 41.4642 32.6038 40.9384 33.25 40.9384H36.7656V47.9697ZM34.8417 58.5367C32.9495 56.1972 32.863 52.6189 33.835 50.0433C34.3905 50.2184 34.9813 50.3133 35.5938 50.3133H36.8103C37.1289 54.4827 39.1341 58.1872 42.1423 60.7464C38.9058 61.2202 36.4084 60.4737 34.8417 58.5367Z" fill="black"/>
<path d="M50.8281 17.0503V18.8081H49.0703V21.1519H50.8281V22.9098H53.1719V21.1519H54.9297V18.8081H53.1719V17.0503H50.8281Z" fill="black"/>
<path d="M58.3653 84.9688H68.9122V87.3125H58.3653V84.9688Z" fill="black"/>
</g>
</svg>
