<svg width="24" height="24" viewBox="0 0 24 24" fill="none" xmlns="http://www.w3.org/2000/svg">
<path d="M20.099 12.6245L18.963 11.4884C18.1184 10.6449 16.9745 10.1698 15.7808 10.1667H12.9371L11.2116 7.40587C11.1445 7.29866 11.027 7.23349 10.9006 7.23344H9.80061C9.59803 7.23353 9.43386 7.39784 9.43395 7.60047C9.43395 7.63035 9.43762 7.6601 9.44486 7.68911L10.0643 10.1667H7.14017L6.11861 6.76151C6.07209 6.60636 5.92927 6.50012 5.76735 6.50012H3.93404C3.73156 6.50012 3.56738 6.66429 3.56738 6.86678V10.5334H3.57082C3.56963 10.6302 3.60703 10.7235 3.67481 10.7926L5.96644 13.0842C6.91192 14.0359 8.19881 14.5697 9.54028 14.5667H9.64015L8.72909 16.6178C8.64692 16.8029 8.73028 17.0195 8.91531 17.1017C8.92608 17.1065 8.93704 17.1108 8.94822 17.1145L10.0475 17.4811C10.2015 17.5324 10.3708 17.4764 10.4639 17.3435L12.4065 14.5667H19.2935C19.9216 14.5678 20.4317 14.0596 20.4329 13.4315C20.4334 13.1288 20.3132 12.8384 20.099 12.6245ZM10.6974 7.96676L12.0724 10.1667H10.8203L10.2702 7.96676H10.6974ZM4.3007 7.23344H5.49451L6.37449 10.1667H4.3007V7.23344ZM10.0199 16.6989L9.5632 16.5466L10.7683 13.8333H12.0245L10.0199 16.6989ZM19.6696 13.582C19.6086 13.7357 19.4589 13.8357 19.2935 13.8333H12.9195L13.0289 13.6769C13.145 13.5109 13.1045 13.2822 12.9385 13.1662C12.8769 13.1232 12.8037 13.1 12.7285 13.1H10.5299C10.385 13.1 10.2536 13.1854 10.1948 13.3179L9.96588 13.8333H9.54028C8.39342 13.8359 7.2932 13.3794 6.4849 12.5658L4.81916 10.9H15.7808C16.5803 10.9035 17.358 11.1602 18.0023 11.6334H16.6672C16.4647 11.6334 16.3005 11.7975 16.3005 12C16.3005 12.2025 16.4647 12.3667 16.6672 12.3667H18.804L19.5814 13.1441C19.6988 13.2576 19.734 13.4318 19.6696 13.582Z" fill="#494949"/>
<path d="M8.73926 12.5C8.73926 12.7761 8.96312 13 9.23926 13C9.5154 13 9.73926 12.7761 9.73926 12.5C9.73926 12.2239 9.5154 12 9.23926 12C8.96312 12 8.73926 12.2239 8.73926 12.5Z" fill="#494949"/>
<path d="M10.8262 12.5C10.8262 12.7761 11.05 13 11.3262 13C11.6023 13 11.8262 12.7761 11.8262 12.5C11.8262 12.2239 11.6023 12 11.3262 12C11.05 12 10.8262 12.2239 10.8262 12.5Z" fill="#494949"/>
<path d="M12.9131 12.5C12.9131 12.7761 13.1369 13 13.4131 13C13.6892 13 13.9131 12.7761 13.9131 12.5C13.9131 12.2239 13.6892 12 13.4131 12C13.1369 12 12.9131 12.2239 12.9131 12.5Z" fill="#494949"/>
<path d="M15 12.5C15 12.7761 15.2239 13 15.5 13C15.7761 13 16 12.7761 16 12.5C16 12.2239 15.7761 12 15.5 12C15.2239 12 15 12.2239 15 12.5Z" fill="#494949"/>
</svg>
