<svg width="15" height="19" viewBox="0 0 15 19" fill="none" xmlns="http://www.w3.org/2000/svg">
<g clip-path="url(#clip0_706_1832)">
<path d="M7.49963 19L6.9356 18.294C6.27692 17.4692 0.5 10.136 0.5 6.68812C0.5 3.00067 3.64 0 7.49963 0C11.3593 0 14.4998 3.00067 14.4998 6.68812C14.4998 10.136 8.72217 17.4692 8.0633 18.294L7.49945 19H7.49963ZM7.49963 1.35518C4.42225 1.35518 1.9186 3.74795 1.9186 6.68812C1.9186 8.97666 5.54062 14.1863 7.49963 16.7487C9.45902 14.1863 13.081 8.97666 13.081 6.68812C13.081 3.74795 10.5772 1.35518 7.49963 1.35518Z" fill="black"/>
<path d="M7.50033 10.3014C5.20849 10.3014 3.34375 8.52 3.34375 6.3308C3.34375 4.14159 5.20849 2.35986 7.50033 2.35986C9.79216 2.35986 11.6562 4.14159 11.6562 6.3308C11.6562 8.52 9.79198 10.3014 7.50033 10.3014ZM7.50033 3.37647C5.79541 3.37647 4.40793 4.70209 4.40793 6.3308C4.40793 7.9595 5.79522 9.28495 7.50033 9.28495C9.20543 9.28495 10.5924 7.9595 10.5924 6.3308C10.5924 4.70209 9.20525 3.37647 7.50033 3.37647Z" fill="black"/>
</g>
<defs>
<clipPath id="clip0_706_1832">
<rect width="14" height="19" fill="white" transform="translate(0.5)"/>
</clipPath>
</defs>
</svg>
