<svg width="17" height="17" viewBox="0 0 17 17" fill="none" xmlns="http://www.w3.org/2000/svg">
<g clip-path="url(#clip0_706_1822)">
<path d="M8.5 17C3.8129 17 0 13.1869 0 8.5C0 3.81307 3.8129 0 8.5 0C13.1871 0 17 3.81307 17 8.5C17 13.1869 13.1869 16.9998 8.5 16.9998V17ZM8.5 1.61128C4.70117 1.61128 1.6111 4.70134 1.6111 8.50017C1.6111 12.299 4.70117 15.3891 8.5 15.3891C12.2988 15.3891 15.3891 12.299 15.3891 8.50017C15.3891 4.70134 12.2988 1.61128 8.5 1.61128Z" fill="black"/>
<path d="M8.49966 8.0899L8.08985 8.58157L5.80225 6.67529L6.21206 6.18311L8.49966 8.0899Z" fill="black"/>
<path d="M6.97134 5.87797L5.63945 7.47792L4.84814 5.55859L6.97134 5.87797Z" fill="black"/>
<path d="M8.59893 8.85306L8.15137 8.39434L11.4161 5.20508L11.8628 5.6638L8.59893 8.85306Z" fill="black"/>
<path d="M12.0885 6.44982L10.6348 4.96159L12.6236 4.37158L12.0885 6.44982Z" fill="black"/>
<path d="M9.75693 8.50003C9.75693 9.19472 9.19386 9.75624 8.50072 9.75624C7.80757 9.75624 7.24365 9.19472 7.24365 8.50003C7.24365 7.80534 7.80689 7.24365 8.50072 7.24365C9.19455 7.24365 9.75693 7.8062 9.75693 8.50003Z" fill="black"/>
</g>
<defs>
<clipPath id="clip0_706_1822">
<rect width="17" height="17" fill="white"/>
</clipPath>
</defs>
</svg>
