<svg width="24" height="24" viewBox="0 0 24 24" fill="none" xmlns="http://www.w3.org/2000/svg">
<path d="M16.9498 14.0502C16.1873 13.2878 15.2799 12.7234 14.2897 12.3818C15.3502 11.6514 16.0469 10.429 16.0469 9.04688C16.0469 6.81543 14.2314 5 12 5C9.76856 5 7.95312 6.81543 7.95312 9.04688C7.95312 10.429 8.64982 11.6514 9.71029 12.3818C8.72017 12.7234 7.81269 13.2878 7.05026 14.0502C5.72814 15.3724 5 17.1302 5 19H6.09375C6.09375 15.7433 8.74328 13.0938 12 13.0938C15.2567 13.0938 17.9062 15.7433 17.9062 19H19C19 17.1302 18.2719 15.3724 16.9498 14.0502ZM12 12C10.3717 12 9.04688 10.6752 9.04688 9.04688C9.04688 7.4185 10.3717 6.09375 12 6.09375C13.6283 6.09375 14.9531 7.4185 14.9531 9.04688C14.9531 10.6752 13.6283 12 12 12Z" fill="#494949"/>
</svg>
