<svg width="104" height="104" viewBox="0 0 104 104" fill="none" xmlns="http://www.w3.org/2000/svg">
<mask id="mask0_320_1482" style="mask-type:alpha" maskUnits="userSpaceOnUse" x="0" y="0" width="104" height="104">
<rect width="104" height="104" fill="#D9D9D9"/>
</mask>
<g mask="url(#mask0_320_1482)">
<path d="M69.2115 69.7317C78.7224 60.4336 78.7224 45.3584 69.2115 36.0603C59.7006 26.7622 44.2804 26.7622 34.7694 36.0603C25.2585 45.3584 25.2585 60.4336 34.7694 69.7317C44.2804 79.0298 59.7006 79.0298 69.2115 69.7317Z" fill="#4BCEBC"/>
<path d="M26.0248 82.5128C28.4108 82.5128 30.345 80.6219 30.345 78.2894C30.345 75.9568 28.4108 74.0659 26.0248 74.0659C23.6389 74.0659 21.7047 75.9568 21.7047 78.2894C21.7047 80.6219 23.6389 82.5128 26.0248 82.5128Z" fill="white"/>
<path d="M26.0248 82.5128C28.4108 82.5128 30.345 80.6219 30.345 78.2894C30.345 75.9568 28.4108 74.0659 26.0248 74.0659C23.6389 74.0659 21.7047 75.9568 21.7047 78.2894C21.7047 80.6219 23.6389 82.5128 26.0248 82.5128Z" fill="white"/>
<path d="M52.0005 90.0008C54.0455 90.0008 55.7034 88.38 55.7034 86.3808C55.7034 84.3815 54.0455 82.7607 52.0005 82.7607C49.9555 82.7607 48.2976 84.3815 48.2976 86.3808C48.2976 88.38 49.9555 90.0008 52.0005 90.0008Z" fill="white"/>
<path d="M52.0005 90.0008C54.0455 90.0008 55.7034 88.38 55.7034 86.3808C55.7034 84.3815 54.0455 82.7607 52.0005 82.7607C49.9555 82.7607 48.2976 84.3815 48.2976 86.3808C48.2976 88.38 49.9555 90.0008 52.0005 90.0008Z" fill="white"/>
<path d="M52.7337 22.9797C55.2512 22.5807 56.9611 20.2622 56.553 17.801C56.1449 15.3399 53.7733 13.6682 51.2559 14.0672C48.7384 14.4661 47.0284 16.7847 47.4365 19.2458C47.8446 21.707 50.2163 23.3787 52.7337 22.9797Z" fill="white"/>
<path d="M52.7337 22.9797C55.2512 22.5807 56.9611 20.2622 56.553 17.801C56.1449 15.3399 53.7733 13.6682 51.2559 14.0672C48.7384 14.4661 47.0284 16.7847 47.4365 19.2458C47.8446 21.707 50.2163 23.3787 52.7337 22.9797Z" fill="white"/>
<path d="M21.3454 53.7421C21.8158 51.7968 20.584 49.847 18.5942 49.3872C16.6044 48.9273 14.61 50.1316 14.1397 52.0768C13.6693 54.0221 14.9011 55.9719 16.8909 56.4317C18.8807 56.8916 20.8751 55.6874 21.3454 53.7421Z" fill="white"/>
<path d="M21.3454 53.7421C21.8158 51.7968 20.584 49.847 18.5942 49.3872C16.6044 48.9273 14.61 50.1316 14.1397 52.0768C13.6693 54.0221 14.9011 55.9719 16.8909 56.4317C18.8807 56.8916 20.8751 55.6874 21.3454 53.7421Z" fill="white"/>
<path d="M88.8566 55.4593C90.3025 54.0458 90.3025 51.754 88.8566 50.3405C87.4108 48.9271 85.0666 48.9271 83.6208 50.3406C82.1749 51.754 82.1749 54.0458 83.6208 55.4593C85.0666 56.8727 87.4108 56.8727 88.8566 55.4593Z" fill="white"/>
<path d="M88.8566 55.4593C90.3025 54.0458 90.3025 51.754 88.8566 50.3405C87.4108 48.9271 85.0666 48.9271 83.6208 50.3406C82.1749 51.754 82.1749 54.0458 83.6208 55.4593C85.0666 56.8727 87.4108 56.8727 88.8566 55.4593Z" fill="white"/>
<path d="M77.0309 80.8845C79.3858 80.5113 80.9853 78.3424 80.6036 76.0402C80.2218 73.738 78.0033 72.1742 75.6484 72.5474C73.2935 72.9206 71.694 75.0895 72.0757 77.3917C72.4574 79.6939 74.6759 81.2577 77.0309 80.8845Z" fill="white"/>
<path d="M77.0309 80.8845C79.3858 80.5113 80.9853 78.3424 80.6036 76.0402C80.2218 73.738 78.0033 72.1742 75.6484 72.5474C73.2935 72.9206 71.694 75.0895 72.0757 77.3917C72.4574 79.6939 74.6759 81.2577 77.0309 80.8845Z" fill="white"/>
<path d="M40.8171 57.1183C43.203 57.1183 45.1372 55.2274 45.1372 52.8948C45.1372 50.5623 43.203 48.6714 40.8171 48.6714C38.4311 48.6714 36.497 50.5623 36.497 52.8948C36.497 55.2274 38.4311 57.1183 40.8171 57.1183Z" fill="white"/>
<path d="M40.8171 57.1183C43.203 57.1183 45.1372 55.2274 45.1372 52.8948C45.1372 50.5623 43.203 48.6714 40.8171 48.6714C38.4311 48.6714 36.497 50.5623 36.497 52.8948C36.497 55.2274 38.4311 57.1183 40.8171 57.1183Z" fill="white"/>
<path d="M57.0267 48.6237C59.3816 48.2505 60.9811 46.0817 60.5994 43.7794C60.2176 41.4772 57.9991 39.9134 55.6442 40.2867C53.2893 40.6599 51.6897 42.8287 52.0715 45.1309C52.4532 47.4332 54.6717 48.9969 57.0267 48.6237Z" fill="white"/>
<path d="M57.0267 48.6237C59.3816 48.2505 60.9811 46.0817 60.5994 43.7794C60.2176 41.4772 57.9991 39.9134 55.6442 40.2867C53.2893 40.6599 51.6897 42.8287 52.0715 45.1309C52.4532 47.4332 54.6717 48.9969 57.0267 48.6237Z" fill="white"/>
<path d="M54.5791 68.0519C56.9651 68.0519 58.8992 66.161 58.8992 63.8284C58.8992 61.4959 56.9651 59.605 54.5791 59.605C52.1932 59.605 50.259 61.4959 50.259 63.8284C50.259 66.161 52.1932 68.0519 54.5791 68.0519Z" fill="white"/>
<path d="M54.5791 68.0519C56.9651 68.0519 58.8992 66.161 58.8992 63.8284C58.8992 61.4959 56.9651 59.605 54.5791 59.605C52.1932 59.605 50.259 61.4959 50.259 63.8284C50.259 66.161 52.1932 68.0519 54.5791 68.0519Z" fill="white"/>
<path d="M27.5072 33.1735C29.8932 33.1735 31.8273 31.2826 31.8273 28.95C31.8273 26.6175 29.8932 24.7266 27.5072 24.7266C25.1213 24.7266 23.1871 26.6175 23.1871 28.95C23.1871 31.2826 25.1213 33.1735 27.5072 33.1735Z" fill="white"/>
<path d="M27.5072 33.1735C29.8932 33.1735 31.8273 31.2826 31.8273 28.95C31.8273 26.6175 29.8932 24.7266 27.5072 24.7266C25.1213 24.7266 23.1871 26.6175 23.1871 28.95C23.1871 31.2826 25.1213 33.1735 27.5072 33.1735Z" fill="white"/>
<path d="M80.4533 30.5902C82.6579 29.6968 83.7043 27.2254 82.7905 25.0701C81.8766 22.9149 79.3487 21.8919 77.1441 22.7853C74.9395 23.6786 73.8931 26.15 74.8069 28.3053C75.7207 30.4606 78.2487 31.4836 80.4533 30.5902Z" fill="white"/>
<path d="M80.4533 30.5902C82.6579 29.6968 83.7043 27.2254 82.7905 25.0701C81.8766 22.9149 79.3487 21.8919 77.1441 22.7853C74.9395 23.6786 73.8931 26.15 74.8069 28.3053C75.7207 30.4606 78.2487 31.4836 80.4533 30.5902Z" fill="white"/>
<path d="M86.2525 47.2756C83.8032 47.2756 81.7081 48.7816 80.8818 50.8956H78.3261C78.1046 48.0512 77.4088 45.2911 76.2492 42.6668C75.8011 41.6531 74.5973 41.1862 73.5605 41.6243C72.5236 42.0622 72.0463 43.2391 72.4942 44.2528C73.7013 46.9847 74.3134 49.8923 74.3134 52.8953C74.3134 58.1908 72.3725 63.0511 69.1505 66.8337L67.8626 65.5746C67.0639 64.7942 65.7689 64.794 64.9702 65.5746C64.1716 66.3554 64.1714 67.6214 64.97 68.4022L66.2579 69.6613C62.3888 72.8112 57.4173 74.7087 52.0005 74.7087C46.5838 74.7087 41.6121 72.8112 37.7431 69.6613L37.9431 69.4657C38.7418 68.6849 38.7418 67.4189 37.9431 66.6379C37.1445 65.8573 35.8495 65.8573 35.0506 66.6379L34.8506 66.8335C31.6285 63.0509 29.6876 58.1906 29.6876 52.8951C29.6876 47.5995 31.6285 42.7392 34.8506 38.9567L36.533 40.6014C36.9324 40.9919 37.4558 41.187 37.9791 41.187C38.5025 41.187 39.0261 40.9919 39.4253 40.6014C40.224 39.8206 40.224 38.5546 39.4253 37.7736L37.7429 36.1288C41.612 32.9789 46.5836 31.0814 52.0003 31.0814C55.0405 31.0814 57.9866 31.668 60.7567 32.8247C61.7959 33.2586 62.9972 32.7867 63.4408 31.7714C63.8846 30.7559 63.4022 29.581 62.3634 29.1473C59.7083 28.0386 56.9184 27.3726 54.0453 27.1587V24.7137C56.7219 23.8678 58.6634 21.4092 58.6634 18.5144C58.6634 14.9224 55.6741 12 52.0001 12C48.3259 12 45.3366 14.9224 45.3366 18.5144C45.3366 21.409 47.2783 23.8676 49.9549 24.7137V27.1595C44.2097 27.5918 38.9743 29.8303 34.8418 33.2928L33.214 31.7014C33.6345 30.8713 33.8721 29.9373 33.8721 28.9498C33.8721 25.5185 31.0168 22.7269 27.5068 22.7269C23.997 22.7269 21.1415 25.5185 21.1415 28.9498C21.1415 32.381 23.997 35.1727 27.5068 35.1727C28.517 35.1727 29.4723 34.9403 30.3214 34.5293L31.9492 36.1206C28.4075 40.1607 26.1177 45.2789 25.6755 50.8956H23.1188C22.2925 48.7816 20.1974 47.2756 17.7481 47.2756C14.5784 47.2756 12 49.7965 12 52.8951C12 55.9936 14.5786 58.5145 17.7481 58.5145C20.1974 58.5145 22.2925 57.0085 23.1188 54.8945H25.6753C26.1175 60.5112 28.4075 65.6294 31.9492 69.6695L28.8391 72.7101C27.9899 72.299 27.0346 72.0666 26.0244 72.0666C22.5147 72.0666 19.6591 74.8581 19.6591 78.2893C19.6591 81.7206 22.5147 84.5122 26.0244 84.5122C29.5342 84.5122 32.3898 81.7206 32.3898 78.2893C32.3898 77.3018 32.1521 76.3679 31.7316 75.5377L34.8418 72.4971C38.9745 75.9596 44.2097 78.1982 49.9549 78.6304V81.13C47.7923 81.9377 46.252 83.9862 46.252 86.3805C46.252 89.4791 48.8306 92 52.0001 92C55.1696 92 57.7482 89.4791 57.7482 86.3805C57.7482 83.986 56.2077 81.9377 54.0453 81.13V78.6304C59.7905 78.1982 65.0257 75.9594 69.1584 72.4971L70.6508 73.9563C70.2303 74.7865 69.9927 75.7204 69.9927 76.708C69.9927 80.1392 72.8482 82.9309 76.358 82.9309C79.8678 82.9309 82.7233 80.1392 82.7233 76.708C82.7233 73.2767 79.868 70.4853 76.358 70.4853C75.3479 70.4853 74.3925 70.7176 73.5434 71.1287L72.0508 69.6695C75.5925 65.6294 77.8823 60.5112 78.3245 54.8945H80.881C81.7073 57.0087 83.8024 58.5145 86.2519 58.5145C89.4214 58.5145 92 55.9936 92 52.8951C92.0004 49.7963 89.422 47.2756 86.2525 47.2756ZM52.0005 15.9991C53.4193 15.9991 54.5734 17.1276 54.5734 18.5146C54.5734 19.9016 53.4193 21.0301 52.0005 21.0301C50.5817 21.0301 49.4274 19.9016 49.4274 18.5146C49.4274 17.1276 50.5817 15.9991 52.0005 15.9991ZM27.5072 31.1738C26.2529 31.1738 25.2323 30.176 25.2323 28.9498C25.2323 27.7235 26.2529 26.7258 27.5072 26.7258C28.7616 26.7258 29.7821 27.7235 29.7821 28.9498C29.7821 30.176 28.7616 31.1738 27.5072 31.1738ZM17.7485 54.5156C16.8345 54.5156 16.0908 53.7886 16.0908 52.8951C16.0908 52.0015 16.8345 51.2745 17.7485 51.2745C18.6625 51.2745 19.4061 52.0015 19.4061 52.8951C19.4061 53.7886 18.6627 54.5156 17.7485 54.5156ZM26.0251 80.5133C24.7707 80.5133 23.7502 79.5156 23.7502 78.2893C23.7502 77.0631 24.7707 76.0655 26.0251 76.0655C27.2794 76.0655 28.3 77.0631 28.3 78.2893C28.2997 79.5156 27.2792 80.5133 26.0251 80.5133ZM52.0005 88.0013C51.0865 88.0013 50.3429 87.2743 50.3429 86.3807C50.3429 85.4872 51.0865 84.7602 52.0005 84.7602C52.9145 84.7602 53.6582 85.4872 53.6582 86.3807C53.6582 87.2743 52.9145 88.0013 52.0005 88.0013ZM76.3584 74.4842C77.6127 74.4842 78.6333 75.4817 78.6333 76.708C78.6333 77.9342 77.6127 78.932 76.3584 78.932C75.1041 78.932 74.0835 77.9342 74.0835 76.708C74.0835 75.4817 75.1041 74.4842 76.3584 74.4842ZM86.2525 54.5156C85.3385 54.5156 84.5947 53.7886 84.5947 52.8951C84.5947 52.0015 85.3383 51.2745 86.2525 51.2745C87.1665 51.2745 87.9102 52.0015 87.9102 52.8951C87.91 53.7886 87.1665 54.5156 86.2525 54.5156Z" fill="#575757"/>
<path d="M34.4518 52.8948C34.4518 56.326 37.3073 59.1177 40.8171 59.1177C44.3269 59.1177 47.1824 56.326 47.1824 52.8948C47.1824 49.4635 44.3269 46.6719 40.8171 46.6719C37.3073 46.6719 34.4518 49.4633 34.4518 52.8948ZM43.0918 52.8948C43.0918 54.121 42.0712 55.1188 40.8169 55.1188C39.5625 55.1188 38.542 54.121 38.542 52.8948C38.542 51.6685 39.5625 50.6708 40.8169 50.6708C42.0712 50.6708 43.0918 51.6685 43.0918 52.8948Z" fill="#575757"/>
<path d="M56.3464 38.2251C52.8366 38.2251 49.9811 41.0165 49.9811 44.448C49.9811 47.8793 52.8364 50.6709 56.3464 50.6709C59.8562 50.6709 62.7117 47.8793 62.7117 44.448C62.7117 41.0167 59.8562 38.2251 56.3464 38.2251ZM56.3464 46.672C55.0921 46.672 54.0715 45.6743 54.0715 44.448C54.0715 43.2217 55.0921 42.224 56.3464 42.224C57.6007 42.224 58.6213 43.2217 58.6213 44.448C58.6213 45.6743 57.6009 46.672 56.3464 46.672Z" fill="#575757"/>
<path d="M54.5791 57.6055C51.0693 57.6055 48.2138 60.3969 48.2138 63.8282C48.2138 67.2594 51.0693 70.0511 54.5791 70.0511C58.0889 70.0511 60.9442 67.2594 60.9442 63.8282C60.9442 60.3971 58.0889 57.6055 54.5791 57.6055ZM54.5791 66.0524C53.3248 66.0524 52.3042 65.0546 52.3042 63.8284C52.3042 62.6021 53.3248 61.6046 54.5791 61.6046C55.8334 61.6046 56.8538 62.6023 56.8538 63.8284C56.8538 65.0546 55.8334 66.0524 54.5791 66.0524Z" fill="#575757"/>
<path d="M78.7844 32.9331C82.2942 32.9331 85.1498 30.1417 85.1498 26.7102C85.1498 23.2787 82.2942 20.4873 78.7844 20.4873C75.2746 20.4873 72.4193 23.2789 72.4193 26.7102C72.4193 30.1415 75.2746 32.9331 78.7844 32.9331ZM78.7844 24.4864C80.0388 24.4864 81.0593 25.4841 81.0593 26.7104C81.0593 27.9367 80.0388 28.9344 78.7844 28.9344C77.5301 28.9344 76.5098 27.9367 76.5098 26.7104C76.5096 25.4839 77.5301 24.4864 78.7844 24.4864Z" fill="#575757"/>
<path d="M69.189 38.0235C69.7269 38.0235 70.2546 37.8096 70.635 37.4377C71.0154 37.0657 71.2343 36.5499 71.2343 36.022C71.2343 35.4961 71.0154 34.9802 70.635 34.6083C70.2546 34.2364 69.7269 34.0225 69.189 34.0225C68.6511 34.0225 68.1234 34.2364 67.743 34.6083C67.3625 34.9802 67.1437 35.4961 67.1437 36.022C67.1437 36.5499 67.3625 37.0657 67.743 37.4377C68.1234 37.8094 68.6511 38.0235 69.189 38.0235Z" fill="#575757"/>
</g>
</svg>
